<?xml version="1.0" standalone="no"?>
<!DOCTYPE svg PUBLIC "-//W3C//DTD SVG 20010904//EN"
 "http://www.w3.org/TR/2001/REC-SVG-20010904/DTD/svg10.dtd">
<svg version="1.0" xmlns="http://www.w3.org/2000/svg"
 width="260.000000pt" height="260.000000pt" viewBox="0 0 260.000000 260.000000"
 preserveAspectRatio="xMidYMid meet">
<metadata>
Created by potrace 1.11, written by Peter Selinger 2001-2013
</metadata>
<g transform="translate(0.000000,260.000000) scale(0.100000,-0.100000)"
fill="#000000" stroke="none">
<path d="M17 2582 c-16 -17 -17 -121 -17 -1284 0 -1213 1 -1266 18 -1281 17
-16 121 -17 1284 -17 1213 0 1266 1 1281 18 16 17 17 121 17 1284 0 1213 -1
1266 -18 1281 -17 16 -121 17 -1284 17 -1213 0 -1266 -1 -1281 -18z m1911
-674 l3 -118 -246 0 -245 0 0 -625 0 -625 -140 0 -140 0 0 625 0 625 -245 0
-245 0 0 120 0 120 628 -2 627 -3 3 -117z"/>
</g>
</svg>
