<?xml version="1.0" encoding="UTF-8"?>
<svg id="SVGRoot" version="1.1" viewBox="0 0 44 44" xmlns="http://www.w3.org/2000/svg">
 <path d="m21.998 0.98863c-11.993 0-21.717 9.724-21.717 21.72 0 9.596 6.2227 17.736 14.853 20.609 1.0867 0.19867 1.4827-0.472 1.4827-1.048 0-0.51467-0.01867-1.8813-0.02933-3.6933-6.0413 1.312-7.316-2.912-7.316-2.912-0.988-2.508-2.412-3.176-2.412-3.176-1.972-1.348 0.14933-1.3213 0.14933-1.3213 2.18 0.15467 3.3267 2.2387 3.3267 2.2387 1.9373 3.3187 5.084 2.36 6.3213 1.8053 0.19733-1.404 0.75733-2.3613 1.3787-2.904-4.8227-0.548-9.8933-2.412-9.8933-10.735 0-2.3707 0.84667-4.3093 2.236-5.828-0.224-0.54933-0.96933-2.7573 0.212-5.748 0 0 1.824-0.584 5.9733 2.2267 1.732-0.48133 3.5907-0.72267 5.4373-0.73067 1.844 8e-3 3.7027 0.24933 5.4373 0.73067 4.1467-2.8107 5.9667-2.2267 5.9667-2.2267 1.1853 2.9907 0.44 5.1987 0.216 5.748 1.392 1.5187 2.2333 3.4573 2.2333 5.828 0 8.344-5.0787 10.18-9.9173 10.717 0.78 0.67067 1.4747 1.996 1.4747 4.0227 0 2.9027-0.02667 5.2453-0.02667 5.9573 0 0.58133 0.39067 1.2573 1.4933 1.0453 8.624-2.8787 14.841-11.013 14.841-20.607 0-11.996-9.7253-21.72-21.721-21.72" fill-rule="evenodd"/>
</svg>
